<svg xmlns="http://www.w3.org/2000/svg" width="300" height="300" viewBox="0 0 300 300">
  <metadata><?xpacket begin="﻿" id="W5M0MpCehiHzreSzNTczkc9d"?>
<x:xmpmeta xmlns:x="adobe:ns:meta/" x:xmptk="Adobe XMP Core 5.6-c142 79.160924, 2017/07/13-01:06:39        ">
   <rdf:RDF xmlns:rdf="http://www.w3.org/1999/02/22-rdf-syntax-ns#">
      <rdf:Description rdf:about=""/>
   </rdf:RDF>
</x:xmpmeta>
                                                                                                    
                                                                                                    
                                                                                                    
                                                                                                    
                                                                                                    
                                                                                                    
                                                                                                    
                                                                                                    
                                                                                                    
                                                                                                    
                                                                                                    
                                                                                                    
                                                                                                    
                                                                                                    
                                                                                                    
                                                                                                    
                                                                                                    
                                                                                                    
                                                                                                    
                                                                                                    
                           
<?xpacket end="w"?></metadata>
<defs>
    <style>
      .cls-1 {
        fill: #9dee61;
        fill-rule: evenodd;
      }
    </style>
  </defs>
  <path id="Rounded_Rectangle_1" data-name="Rounded Rectangle 1" class="cls-1" d="M30,0H270a30,30,0,0,1,30,30V270a30,30,0,0,1-30,30H30A30,30,0,0,1,0,270V30A30,30,0,0,1,30,0ZM40,29H262a10,10,0,0,1,10,10V261a10,10,0,0,1-10,10H40a10,10,0,0,1-10-10V39A10,10,0,0,1,40,29ZM224,237.657c-18,1.995-20-11.974-20-11.974l-2-112.735-4-1s-23.5,102.742-26,109.742-3,5.986-6,10.974c-9,6.989-16,5.656-16,4.991v0.155c0,0.666-7,2-16-4.994-3-4.993-3.5-3.978-6-10.984s-26-109.841-26-109.841l-4,1L96,225.828s-2,13.982-20,11.985c-17,.505-18-15.979-18-15.979s6.667-140.8,8-144.79A18.181,18.181,0,0,1,79,65.061c8-2,24.333-.666,29,0s11,4.66,14,9.985S150,177.9,150,177.9v-0.1s25-97.438,28-102.758,9.333-9.312,14-9.977,21-2,29,0a18.173,18.173,0,0,1,13,11.972c1.333,3.991,8,144.66,8,144.66S241,238.162,224,237.657Z"/>
</svg>
